<svg width="161" height="50" fill="none" xmlns="http://www.w3.org/2000/svg"><g clip-path="url('#clip0_1_1154')"><path d="M46.612 35.471c-.25-.61-.483-1.25-.732-1.797l-1.154-2.61-.047-.046c-3.43-7.5-7.092-15.125-10.974-22.625l-.156-.313c-.39-.734-.78-1.547-1.184-2.297-.5-.89-.982-1.843-1.777-2.75A8.265 8.265 0 0 0 24.196 0a8.245 8.245 0 0 0-6.39 3.033c-.733.907-1.279 1.86-1.778 2.75-.39.813-.78 1.61-1.184 2.344l-.156.313c-3.82 7.5-7.545 15.125-10.975 22.625l-.093.093c-.343.813-.748 1.657-1.138 2.563-.25.547-.499 1.14-.748 1.797a10.648 10.648 0 0 0 1.508 10.42 10.603 10.603 0 0 0 4.328 3.291c1.704.702 3.56.947 5.387.71a13.04 13.04 0 0 0 4.957-1.718c2.027-1.14 3.975-2.797 6.158-5.188 2.182 2.391 4.177 4.047 6.157 5.204a13.04 13.04 0 0 0 6.267 1.796 10.57 10.57 0 0 0 6.962-2.58 10.617 10.617 0 0 0 3.56-6.529 9.302 9.302 0 0 0-.406-5.469v.016Zm-22.384 2.594c-2.682-3.438-4.428-6.594-5.02-9.297a8.14 8.14 0 0 1-.156-3.063c.11-.796.406-1.5.81-2.093.936-1.36 2.573-2.203 4.366-2.203a5.134 5.134 0 0 1 4.364 2.187c.406.625.702 1.313.795 2.11.156.906.094 1.953-.156 3.062-.592 2.656-2.338 5.844-5.003 9.297Zm19.859 2.312a7.447 7.447 0 0 1-1.48 3.534 7.422 7.422 0 0 1-3.04 2.326c-1.185.5-2.495.64-3.773.5-1.247-.157-2.494-.563-3.772-1.313a24.394 24.394 0 0 1-5.659-4.844c3.274-4.062 5.253-7.765 6.002-11.062.358-1.563.405-2.969.249-4.266a8.653 8.653 0 0 0-1.34-3.437 8.34 8.34 0 0 0-7-3.563c-2.883 0-5.455 1.344-7.014 3.547a8.106 8.106 0 0 0-1.325 3.453 10.311 10.311 0 0 0 .249 4.266c.748 3.297 2.775 7.047 6.002 11.094a22.351 22.351 0 0 1-5.659 4.875c-1.294.75-2.525 1.14-3.772 1.296a7.407 7.407 0 0 1-5.452-1.47 7.441 7.441 0 0 1-2.841-4.889c-.156-1.25-.047-2.5.452-3.906.156-.5.39-1 .639-1.594.343-.812.748-1.656 1.138-2.5l.062-.11A511.634 511.634 0 0 1 17.618 9.8l.156-.312c.39-.75.78-1.547 1.185-2.297.405-.797.841-1.563 1.403-2.188a5.177 5.177 0 0 1 3.967-1.856 5.165 5.165 0 0 1 3.967 1.856c.546.625.998 1.39 1.403 2.188.39.75.78 1.562 1.185 2.297l.156.312A619.728 619.728 0 0 1 41.95 32.315l.047.047c.406.812.748 1.718 1.138 2.5.25.609.499 1.093.655 1.609.296 1.406.452 2.656.296 3.906Zm21.699-2.656a7.81 7.81 0 0 1-6.157-2.86 10.25 10.25 0 0 1-2.495-7 10.89 10.89 0 0 1 2.588-7.156 8.265 8.265 0 0 1 6.36-2.906 6.69 6.69 0 0 1 5.768 3l.156-2.453h4.551v18.875H71.99l-.156-2.75a7.052 7.052 0 0 1-2.603 2.413 7.032 7.032 0 0 1-3.445.837Zm1.184-4.5c.905 0 1.7-.25 2.448-.703.686-.5 1.247-1.156 1.683-1.953.39-.797.593-1.75.593-2.813a5.355 5.355 0 0 0-2.292-4.75 4.591 4.591 0 0 0-4.863 0c-.686.5-1.247 1.157-1.684 1.953a6.278 6.278 0 0 0-.592 2.813 5.354 5.354 0 0 0 2.291 4.75 4.5 4.5 0 0 0 2.416.703Zm17.381-19.969c0 .547-.093 1.047-.343 1.453-.249.391-.592.75-1.044 1-.452.25-.935.344-1.434.344-.499 0-.998-.094-1.45-.344a2.872 2.872 0 0 1-1.044-1 2.849 2.849 0 0 1-.343-1.453c0-.562.109-1.062.343-1.453.25-.469.608-.75 1.044-1 .452-.25.936-.36 1.45-.36a2.864 2.864 0 0 1 2.494 1.345c.227.455.34.96.327 1.468Zm-5.3 23.906V18.315h4.957V37.19h-4.972l.015-.032Zm18.207-13.906v.063c-.233-.11-.545-.157-.779-.203-.312-.063-.561-.063-.857-.063-1.388 0-2.432.406-3.118 1.25-.748.86-1.091 2.063-1.091 3.61v9.265H86.44V18.3h4.568l.156 2.86c.498-1 1.09-1.75 1.932-2.313a4.824 4.824 0 0 1 2.822-.781c.358 0 .701.031.997.093.156.047.25.047.343.094v5Zm1.996 13.906V10.565h4.957V20.72c.701-.906 1.496-1.61 2.494-2.156a7.809 7.809 0 0 1 9.478 2.047 10.254 10.254 0 0 1 2.494 7.015 10.897 10.897 0 0 1-2.588 7.156 8.263 8.263 0 0 1-6.36 2.907 6.691 6.691 0 0 1-5.768-3l-.155 2.453-4.552.047v-.032Zm9.587-3.937c.888 0 1.683-.25 2.431-.703.686-.5 1.247-1.156 1.684-1.953.405-.797.592-1.75.592-2.813 0-1.047-.187-2-.592-2.797a5.864 5.864 0 0 0-1.684-1.953 4.589 4.589 0 0 0-4.863 0c-.702.5-1.247 1.157-1.699 1.953a6.277 6.277 0 0 0-.593 2.813 5.34 5.34 0 0 0 2.292 4.75 4.51 4.51 0 0 0 2.432.703Zm11.706 3.953V18.3h4.568l.156 2.453a6.173 6.173 0 0 1 5.518-2.953 6.385 6.385 0 0 1 5.954 3.813c.546 1.187.842 2.656.842 4.297V37.22h-4.972V26.565c0-1.313-.297-2.344-.889-3.11-.592-.75-1.403-1.156-2.432-1.156-.748 0-1.403.156-1.979.5-.546.36-.998.813-1.341 1.453a4.223 4.223 0 0 0-.499 2.11v10.812h-4.926Zm19.517 0V10.55h4.972v10.156a7.27 7.27 0 0 1 5.815-2.953 7.812 7.812 0 0 1 6.157 2.86 10.283 10.283 0 0 1 2.479 7 10.874 10.874 0 0 1-2.588 7.156 8.264 8.264 0 0 1-6.36 2.906 6.691 6.691 0 0 1-5.768-3l-.14 2.453-4.567.047Zm9.633-3.953c.904 0 1.699-.25 2.432-.703.702-.5 1.247-1.156 1.699-1.953.39-.797.593-1.75.593-2.813a5.36 5.36 0 0 0-2.292-4.75 4.592 4.592 0 0 0-4.863 0c-.686.5-1.248 1.157-1.684 1.953a5.681 5.681 0 0 0-.592 2.813 5.348 5.348 0 0 0 2.291 4.75c.733.453 1.481.703 2.416.703Z" fill="#FF385C"/></g><defs><clipPath id="clip0_1_1154"><path fill="#fff" transform="translate(.5)" d="M0 0h160v50H0z"/></clipPath></defs></svg>