<svg width="141" height="50" fill="none" xmlns="http://www.w3.org/2000/svg"><g clip-path="url('#clip0_1_1169')"><path d="m105.109 44.743 11.676-12.931-11.676-12.933h12.319l5.783 6.282 5.568-6.282h11.889l-11.62 12.88 11.78 12.984h-12.37l-5.73-6.334-5.676 6.334h-11.943Z" fill="#F60"/><path d="M105.109 13.081H91.886v5.798h13.223v8.738H91.886v8.02h13.223v9.106H82.167V4h22.942v9.081Z" fill="#F60"/><path d="M72.489 4v16.674h-.107c-2.142-2.428-4.82-3.271-7.925-3.271-6.363 0-11.156 4.263-12.838 9.9-1.92-6.21-6.867-10.017-14.204-10.017-5.959 0-10.664 2.637-13.12 6.933v-5.34H11.98v-5.797h13.44V4H1v40.744h10.979V27.617h10.943a16.013 16.013 0 0 0-.5 4.026c0 8.5 6.587 14.463 14.993 14.463 7.068 0 11.727-3.272 14.19-9.236h-9.408c-1.273 1.792-2.238 2.324-4.782 2.324-2.95 0-5.494-2.537-5.494-5.545h19.158c.83 6.75 6.165 12.572 13.486 12.572a9.415 9.415 0 0 0 7.817-4.116h.107v2.637h9.678V4H72.49ZM32.226 27.738c.61-2.587 2.647-4.279 5.189-4.279 2.798 0 4.73 1.64 5.239 4.28H32.226Zm34.39 10.802c-3.568 0-5.785-3.277-5.785-6.698 0-3.657 1.928-7.174 5.785-7.174 3.998 0 5.591 3.517 5.591 7.174 0 3.468-1.688 6.698-5.591 6.698Z" fill="#652C8F"/></g><defs><clipPath id="clip0_1_1169"><path fill="#fff" transform="translate(.5)" d="M0 0h140v50H0z"/></clipPath></defs></svg>