<svg width="161" height="50" fill="none" xmlns="http://www.w3.org/2000/svg"><path d="M70.051 26.26c0 6.906-5.372 11.995-11.965 11.995s-11.965-5.09-11.965-11.995c0-6.954 5.372-11.995 11.965-11.995s11.965 5.04 11.965 11.995Zm-5.237 0c0-4.315-3.114-7.268-6.728-7.268s-6.727 2.953-6.727 7.268c0 4.272 3.113 7.268 6.727 7.268 3.614 0 6.728-3.001 6.728-7.268Z" fill="#EA4335"/><path d="M95.863 26.26c0 6.906-5.372 11.995-11.965 11.995s-11.965-5.09-11.965-11.995c0-6.949 5.372-11.995 11.965-11.995s11.965 5.04 11.965 11.995Zm-5.237 0c0-4.315-3.114-7.268-6.728-7.268-3.613 0-6.727 2.953-6.727 7.268 0 4.272 3.114 7.268 6.727 7.268 3.614 0 6.728-3.001 6.728-7.268Z" fill="#FBBC05"/><path d="M120.6 14.99v21.534c0 8.858-5.195 12.476-11.336 12.476-5.781 0-9.26-3.888-10.572-7.068l4.56-1.909c.812 1.952 2.802 4.256 6.007 4.256 3.931 0 6.367-2.439 6.367-7.03v-1.725h-.183c-1.172 1.454-3.431 2.725-6.281 2.725-5.964 0-11.427-5.224-11.427-11.946 0-6.77 5.463-12.038 11.427-12.038 2.845 0 5.103 1.271 6.281 2.683h.183v-1.953h4.974v-.005Zm-4.603 11.313c0-4.223-2.802-7.311-6.367-7.311-3.614 0-6.641 3.088-6.641 7.311 0 4.18 3.027 7.225 6.641 7.225 3.565 0 6.367-3.044 6.367-7.225Z" fill="#4285F4"/><path d="M128.801 2.368V37.52h-5.109V2.37h5.109Z" fill="#34A853"/><path d="m148.709 30.208 4.065 2.725c-1.312 1.953-4.474 5.316-9.938 5.316-6.775 0-11.836-5.267-11.836-11.994 0-7.133 5.104-11.995 11.25-11.995 6.19 0 9.217 4.954 10.207 7.63l.543 1.363-15.944 6.641c1.22 2.407 3.119 3.634 5.78 3.634 2.668 0 4.518-1.32 5.873-3.32Zm-12.514-4.316 10.658-4.45c-.586-1.498-2.35-2.542-4.425-2.542-2.662 0-6.367 2.363-6.233 6.992Z" fill="#EA4335"/><path d="M26.784 23.14v-5.09h17.052c.167.888.253 1.937.253 3.073 0 3.817-1.038 8.538-4.383 11.902-3.253 3.407-7.41 5.224-12.917 5.224C16.583 38.25 8 29.89 8 19.625S16.583 1 26.79 1c5.645 0 9.668 2.228 12.69 5.132l-3.57 3.59C33.741 7.68 30.805 6.09 26.783 6.09c-7.453 0-13.283 6.04-13.283 13.536 0 7.495 5.83 13.535 13.283 13.535 4.834 0 7.587-1.952 9.351-3.726 1.43-1.438 2.372-3.493 2.743-6.3l-12.094.006Z" fill="#4285F4"/></svg>