<svg width="30" height="30" fill="none" xmlns="http://www.w3.org/2000/svg"><path d="M15 8.75a6.25 6.25 0 1 0 0 12.5 6.25 6.25 0 0 0 0-12.5Zm-12.5 7.5H5a1.25 1.25 0 0 0 0-2.5H2.5a1.25 1.25 0 0 0 0 2.5Zm22.5 0h2.5a1.25 1.25 0 0 0 0-2.5H25a1.25 1.25 0 0 0 0 2.5ZM13.75 2.5V5a1.25 1.25 0 0 0 2.5 0V2.5a1.25 1.25 0 0 0-2.5 0Zm0 22.5v2.5a1.25 1.25 0 0 0 2.5 0V25a1.25 1.25 0 0 0-2.5 0ZM7.487 5.725a1.25 1.25 0 1 0-1.762 1.763L7.05 8.812A1.25 1.25 0 1 0 8.813 7.05L7.486 5.725ZM22.95 21.188a1.252 1.252 0 0 0-2.113.357 1.252 1.252 0 0 0 .35 1.405l1.325 1.325a1.252 1.252 0 0 0 2.114-.357 1.252 1.252 0 0 0-.351-1.405l-1.325-1.326Zm1.325-13.7a1.25 1.25 0 1 0-1.762-1.763L21.186 7.05a1.25 1.25 0 1 0 1.763 1.763l1.325-1.326ZM8.813 22.95a1.251 1.251 0 1 0-1.763-1.762l-1.325 1.325a1.251 1.251 0 1 0 1.763 1.762l1.324-1.325Z" fill="#000"/></svg>