<svg width="216" height="50" fill="none" xmlns="http://www.w3.org/2000/svg"><path d="m77.185 28.343-1.27 3.479h-.106c-.211-.785-.6-1.979-1.234-3.411L67.77 11.868h-6.665v26.366h4.408v-16.27c0-1.023 0-2.183-.035-3.615-.035-.716-.106-1.262-.141-1.672h.106a15.53 15.53 0 0 0 .634 2.252l8.182 19.237h3.103l8.111-19.408c.176-.443.353-1.33.529-2.08h.106a237.48 237.48 0 0 0-.212 4.74v16.714h4.69V11.8h-6.418l-6.982 16.543Zm17.844-9.107h4.584v18.896H95.03V19.236Zm2.327-7.982c-.776 0-1.41.273-1.94.75-.528.478-.81 1.092-.81 1.843 0 .716.282 1.33.81 1.807.53.478 1.164.716 1.94.716s1.446-.272 1.94-.716a2.364 2.364 0 0 0 .811-1.807c0-.717-.282-1.33-.811-1.842-.459-.478-1.129-.75-1.94-.75Zm18.514 7.811a13.196 13.196 0 0 0-2.574-.273c-2.081 0-3.985.444-5.572 1.33-1.587.887-2.856 2.115-3.667 3.65-.847 1.569-1.27 3.377-1.27 5.457 0 1.808.423 3.411 1.234 4.878.811 1.432 1.94 2.592 3.456 3.377 1.446.784 3.139 1.194 5.043 1.194 2.187 0 4.056-.444 5.537-1.262l.035-.035v-4.093l-.176.137c-.67.477-1.446.887-2.222 1.125-.811.273-1.552.41-2.186.41-1.834 0-3.28-.512-4.303-1.638-1.058-1.091-1.587-2.592-1.587-4.468 0-1.944.529-3.479 1.623-4.604 1.093-1.126 2.539-1.706 4.302-1.706 1.481 0 2.997.478 4.373 1.433l.176.136v-4.332l-.035-.034c-.6-.238-1.27-.511-2.187-.682Zm15.129-.136a4.94 4.94 0 0 0-3.103 1.057c-.776.614-1.305 1.5-1.764 2.558h-.035v-3.308h-4.584v18.896h4.584v-9.653c0-1.637.353-3.002 1.129-3.99.775-1.024 1.763-1.536 2.962-1.536.423 0 .846.103 1.375.171.494.136.847.273 1.093.443l.177.137V19.27l-.106-.034c-.317-.205-.952-.307-1.728-.307Zm12.484-.103c-3.209 0-5.784.921-7.582 2.729-1.834 1.808-2.716 4.298-2.716 7.436 0 2.933.917 5.32 2.681 7.06 1.763 1.706 4.161 2.592 7.158 2.592 3.139 0 5.643-.92 7.441-2.762 1.834-1.842 2.716-4.298 2.716-7.334 0-3.001-.847-5.389-2.575-7.128-1.657-1.74-4.09-2.593-7.123-2.593Zm3.667 14.53c-.846 1.058-2.186 1.57-3.844 1.57-1.657 0-2.997-.512-3.949-1.638-.952-1.057-1.411-2.592-1.411-4.536 0-2.012.494-3.547 1.411-4.639.952-1.091 2.257-1.637 3.914-1.637 1.622 0 2.892.512 3.809 1.569.917 1.057 1.41 2.592 1.41 4.605-.07 2.046-.458 3.65-1.34 4.706Zm16.257-6.275c-1.445-.58-2.362-1.024-2.786-1.399-.352-.341-.528-.819-.528-1.432 0-.512.211-1.024.74-1.365.529-.34 1.129-.511 2.01-.511.776 0 1.587.136 2.363.34.776.205 1.481.512 2.045.922l.177.136v-4.161l-.106-.034a13.043 13.043 0 0 0-2.081-.58 14.59 14.59 0 0 0-2.257-.205c-2.186 0-3.985.512-5.395 1.637-1.411 1.058-2.081 2.49-2.081 4.162 0 .886.141 1.671.459 2.319a5.184 5.184 0 0 0 1.41 1.774c.635.477 1.552 1.023 2.821 1.535 1.058.443 1.869.784 2.363 1.057.494.273.811.58 1.058.818.176.273.282.614.282 1.058 0 1.262-.987 1.876-2.997 1.876-.776 0-1.587-.137-2.539-.444a9.937 9.937 0 0 1-2.575-1.262l-.176-.136v4.332l.106.034c.67.307 1.481.511 2.468.75.988.17 1.869.307 2.645.307 2.363 0 4.302-.511 5.678-1.637 1.41-1.091 2.151-2.49 2.151-4.298 0-1.262-.353-2.387-1.129-3.24a14.394 14.394 0 0 0-4.126-2.353Zm17.351-8.255c-3.209 0-5.784.921-7.582 2.729-1.799 1.808-2.716 4.298-2.716 7.436 0 2.933.917 5.32 2.681 7.06 1.763 1.706 4.161 2.592 7.158 2.592 3.139 0 5.643-.92 7.441-2.762 1.834-1.842 2.716-4.298 2.716-7.334 0-3.001-.847-5.389-2.575-7.128-1.657-1.74-4.09-2.593-7.123-2.593Zm3.632 14.53c-.846 1.058-2.186 1.57-3.844 1.57-1.693 0-2.997-.512-3.95-1.638-.952-1.057-1.41-2.592-1.41-4.536 0-2.012.494-3.547 1.41-4.639.953-1.091 2.257-1.637 3.915-1.637 1.587 0 2.892.512 3.809 1.569.916 1.057 1.41 2.592 1.41 4.605 0 2.046-.458 3.65-1.34 4.706Zm30.575-10.47v-3.65h-4.62v-5.594l-.141.034-4.373 1.262-.106.034v4.264h-6.912v-2.388c0-1.091.283-1.944.776-2.49.494-.546 1.235-.819 2.151-.819.635 0 1.305.137 2.046.444l.176.102v-3.854l-.106-.034c-.634-.205-1.481-.341-2.574-.341a8.496 8.496 0 0 0-3.668.818c-1.093.58-1.904 1.365-2.503 2.422-.6 1.023-.917 2.183-.917 3.513v2.627h-3.209v3.615h3.209v15.28h4.619V22.886h6.912v9.721c0 3.99 1.94 6.003 5.819 6.003.635 0 1.305-.102 1.94-.204.67-.137 1.163-.307 1.445-.444l.036-.034v-3.65l-.177.137c-.282.17-.529.307-.952.41-.352.102-.67.136-.917.136-.917 0-1.551-.205-2.01-.717-.423-.477-.635-1.262-.635-2.421v-8.937h4.691Z" fill="#737373"/><path d="M2 3h21.617v20.909H2V3Z" fill="#F25022"/><path d="M25.874 3h21.618v20.909H25.874V3Z" fill="#7FBA00"/><path d="M2 26.091h21.617V47H2V26.091Z" fill="#00A4EF"/><path d="M25.874 26.091h21.618V47H25.874V26.091Z" fill="#FFB900"/></svg>