<svg width="161" height="50" viewBox="0 0 161 50" fill="none" xmlns="http://www.w3.org/2000/svg">
<g clip-path="url(#clip0_1_1154)">
<path d="M46.6123 35.471C46.3629 34.8616 46.129 34.221 45.8796 33.6741L44.7261 31.0647L44.6793 31.0179C41.2499 23.5179 37.5867 15.8929 33.7052 8.39286L33.5493 8.08036C33.1596 7.34598 32.7699 6.53348 32.3646 5.78348C31.8658 4.89286 31.3826 3.93973 30.5876 3.03348C29.8126 2.08525 28.8374 1.32128 27.7321 0.796693C26.6269 0.27211 25.4193 0 24.1964 0C22.9735 0 21.7659 0.27211 20.6607 0.796693C19.5554 1.32128 18.5802 2.08525 17.8052 3.03348C17.0726 3.93973 16.527 4.89286 16.0282 5.78348C15.6385 6.59598 15.2488 7.39286 14.8435 8.12723L14.6876 8.43973C10.8685 15.9397 7.14287 23.5647 3.71346 31.0647L3.61993 31.1585C3.27699 31.971 2.8717 32.8147 2.48199 33.721C2.23258 34.2679 1.98317 34.8616 1.73376 35.5179C1.06039 37.2363 0.845369 39.1009 1.10987 40.928C1.37437 42.7551 2.10927 44.4815 3.24214 45.9372C4.37501 47.3929 5.86675 48.5276 7.57034 49.2295C9.27393 49.9313 11.1306 50.1761 12.9573 49.9397C14.7086 49.7087 16.3949 49.124 17.9143 48.221C19.9408 47.0804 21.8893 45.4241 24.0717 43.0335C26.254 45.4241 28.2493 47.0804 30.229 48.2366C32.1328 49.3567 34.2888 49.9749 36.4955 50.0335C39.051 50.0441 41.524 49.1277 43.458 47.4534C45.3919 45.779 46.6563 43.4599 47.0176 40.9241C47.4351 39.1019 47.2938 37.1957 46.6123 35.4554V35.471ZM24.2276 38.0647C21.5464 34.6272 19.8005 31.471 19.2082 28.7679C18.9627 27.7662 18.9098 26.7269 19.0523 25.7054C19.1614 24.9085 19.4576 24.2054 19.8629 23.6116C20.7982 22.2522 22.4349 21.4085 24.2276 21.4085C25.0789 21.3824 25.9234 21.5686 26.6852 21.9504C27.447 22.3322 28.1023 22.8977 28.5923 23.596C28.9976 24.221 29.2938 24.9085 29.3873 25.7054C29.5432 26.6116 29.4808 27.6585 29.2314 28.7679C28.639 31.4241 26.8932 34.6116 24.2276 38.0647ZM44.087 40.3772C43.9099 41.6646 43.3993 42.8831 42.6062 43.9111C41.813 44.9392 40.7649 45.741 39.5664 46.2366C38.3817 46.7366 37.0723 46.8772 35.794 46.7366C34.547 46.5804 33.2999 46.1741 32.0217 45.4241C29.8994 44.1093 27.991 42.4757 26.3632 40.5804C29.6367 36.5179 31.6164 32.8147 32.3646 29.5179C32.7232 27.9554 32.7699 26.5491 32.614 25.2522C32.4194 24.023 31.9621 22.8504 31.2735 21.8147C30.4872 20.6917 29.4377 19.7795 28.2173 19.1583C26.9968 18.5371 25.6429 18.226 24.2743 18.2522C21.3905 18.2522 18.8185 19.596 17.2596 21.7991C16.5579 22.8322 16.1044 24.0141 15.9346 25.2522C15.732 26.5647 15.7788 28.0179 16.184 29.5179C16.9323 32.8147 18.9588 36.5647 22.1855 40.6116C20.5854 42.5431 18.6725 44.1911 16.527 45.4866C15.2332 46.2366 14.0017 46.6272 12.7546 46.7835C10.8153 47.0325 8.85625 46.5042 7.30337 45.3134C5.75049 44.1225 4.72927 42.3655 4.4617 40.4241C4.30581 39.1741 4.41493 37.9241 4.91375 36.5179C5.06964 36.0179 5.30346 35.5179 5.55287 34.9241C5.89581 34.1116 6.30111 33.2679 6.69081 32.4241L6.75317 32.3147C10.1202 24.8616 13.799 17.2522 17.6182 9.79911L17.774 9.48661C18.1638 8.73661 18.5535 7.93973 18.9588 7.18973C19.364 6.39286 19.8005 5.62723 20.3617 5.00223C20.8474 4.42102 21.4544 3.9536 22.1398 3.63288C22.8252 3.31217 23.5725 3.14596 24.3289 3.14596C25.0853 3.14596 25.8326 3.31217 26.518 3.63288C27.2034 3.9536 27.8104 4.42102 28.2961 5.00223C28.8417 5.62723 29.2938 6.39286 29.699 7.18973C30.0888 7.93973 30.4785 8.75223 30.8838 9.48661L31.0396 9.79911C34.8432 17.2522 38.522 24.8616 41.9514 32.3147L41.9982 32.3616C42.4035 33.1741 42.7464 34.0804 43.1361 34.8616C43.3855 35.471 43.6349 35.9554 43.7908 36.471C44.087 37.8772 44.2429 39.1272 44.087 40.3772ZM65.7858 37.721C64.6112 37.7382 63.4477 37.4901 62.3818 36.9951C61.3159 36.5001 60.3748 35.7709 59.6285 34.8616C57.9513 32.924 57.0611 30.4258 57.1343 27.8616C57.1087 25.2416 58.0275 22.7004 59.722 20.7054C60.5058 19.7845 61.4814 19.047 62.5803 18.5448C63.6791 18.0427 64.8744 17.7882 66.082 17.7991C67.2183 17.7679 68.3438 18.0269 69.3527 18.5517C70.3617 19.0765 71.2209 19.8499 71.8496 20.7991L72.0055 18.346H76.5573V37.221H71.9899L71.834 34.471C71.1858 35.4845 70.2899 36.3151 69.2313 36.8839C68.1728 37.4528 66.9867 37.7409 65.7858 37.721ZM66.9705 33.221C67.8746 33.221 68.6696 32.971 69.4179 32.5179C70.1037 32.0179 70.6649 31.3616 71.1014 30.5647C71.4911 29.7679 71.6937 28.8147 71.6937 27.7522C71.7545 26.8294 71.5753 25.9066 71.1737 25.074C70.772 24.2414 70.1616 23.5275 69.4023 23.0022C68.6726 22.5466 67.8302 22.305 66.9705 22.305C66.1108 22.305 65.2684 22.5466 64.5387 23.0022C63.8529 23.5022 63.2917 24.1585 62.8552 24.9554C62.443 25.8342 62.2402 26.797 62.2629 27.7679C62.2021 28.6907 62.3813 29.6135 62.783 30.4461C63.1846 31.2787 63.795 31.9926 64.5543 32.5179C65.287 32.971 66.082 33.221 66.9705 33.221ZM84.3514 13.2522C84.3514 13.7991 84.2579 14.2991 84.0084 14.7054C83.759 15.096 83.4161 15.4554 82.964 15.7054C82.512 15.9554 82.0287 16.0491 81.5299 16.0491C81.0311 16.0491 80.5323 15.9554 80.0802 15.7054C79.6527 15.4668 79.2931 15.1225 79.0358 14.7054C78.7944 14.2603 78.676 13.7586 78.6929 13.2522C78.6929 12.6897 78.802 12.1897 79.0358 11.7991C79.2852 11.3304 79.6437 11.0491 80.0802 10.7991C80.5323 10.5491 81.0155 10.4397 81.5299 10.4397C82.0261 10.4283 82.5168 10.5461 82.9539 10.7816C83.3911 11.0171 83.7598 11.3623 84.024 11.7835C84.2509 12.239 84.3633 12.7432 84.3514 13.2522ZM79.0514 37.1585V18.3147H84.0084V37.1897H79.0358L79.0514 37.1585ZM97.2584 23.2522V23.3147C97.0246 23.2054 96.7129 23.1585 96.479 23.1116C96.1673 23.0491 95.9179 23.0491 95.6217 23.0491C94.2343 23.0491 93.1899 23.4554 92.504 24.2991C91.7558 25.1585 91.4129 26.3616 91.4129 27.9085V37.1741H86.4402V18.2991H91.0076L91.1635 21.1585C91.6623 20.1585 92.2546 19.4085 93.0964 18.846C93.9337 18.2994 94.9194 18.0265 95.9179 18.0647C96.2764 18.0647 96.6193 18.096 96.9155 18.1585C97.0714 18.2054 97.1649 18.2054 97.2584 18.2522V23.2522ZM99.2537 37.1585V10.5647H104.211V20.721C104.912 19.8147 105.707 19.1116 106.705 18.5647C108.284 17.7885 110.079 17.5684 111.798 17.9397C113.518 18.3111 115.062 19.2523 116.183 20.6116C117.863 22.5532 118.754 25.0577 118.677 27.6272C118.702 30.2472 117.783 32.7884 116.089 34.7835C115.305 35.7044 114.33 36.4419 113.231 36.944C112.132 37.4461 110.937 37.7007 109.729 37.6897C108.593 37.7209 107.467 37.4619 106.458 36.9371C105.449 36.4123 104.59 35.639 103.961 34.6897L103.806 37.1429L99.2537 37.1897V37.1585ZM108.841 33.221C109.729 33.221 110.524 32.971 111.272 32.5179C111.958 32.0179 112.519 31.3616 112.956 30.5647C113.361 29.7679 113.548 28.8147 113.548 27.7522C113.548 26.7054 113.361 25.7522 112.956 24.9554C112.546 24.187 111.971 23.5197 111.272 23.0022C110.543 22.5466 109.7 22.305 108.841 22.305C107.981 22.305 107.138 22.5466 106.409 23.0022C105.707 23.5022 105.162 24.1585 104.71 24.9554C104.297 25.8342 104.095 26.797 104.117 27.7679C104.057 28.6907 104.236 29.6135 104.637 30.4461C105.039 31.2787 105.649 31.9926 106.409 32.5179C107.141 32.971 107.936 33.221 108.841 33.221ZM120.547 37.1741V18.2991H125.115L125.271 20.7522C125.844 19.8119 126.659 19.0423 127.629 18.5231C128.599 18.004 129.69 17.754 130.789 17.7991C132.045 17.7774 133.28 18.1274 134.34 18.8055C135.399 19.4836 136.235 20.4597 136.743 21.6116C137.289 22.7991 137.585 24.2679 137.585 25.9085V37.221H132.613V26.5647C132.613 25.2522 132.316 24.221 131.724 23.4554C131.132 22.7054 130.321 22.2991 129.292 22.2991C128.544 22.2991 127.889 22.4554 127.313 22.7991C126.767 23.1585 126.315 23.6116 125.972 24.2522C125.625 24.8998 125.453 25.6269 125.473 26.3616V37.1741H120.547ZM140.064 37.1741V10.5491H145.036V20.7054C145.71 19.7941 146.586 19.0527 147.595 18.54C148.605 18.0274 149.719 17.7577 150.851 17.7522C152.025 17.735 153.189 17.9831 154.255 18.4781C155.321 18.9731 156.262 19.7023 157.008 20.6116C158.677 22.553 159.561 25.05 159.487 27.6116C159.514 30.2318 158.595 32.7735 156.899 34.7679C156.115 35.6888 155.14 36.4262 154.041 36.9284C152.942 37.4305 151.747 37.685 150.539 37.6741C149.403 37.7053 148.277 37.4463 147.268 36.9215C146.259 36.3967 145.4 35.6233 144.771 34.6741L144.631 37.1272L140.064 37.1741ZM149.697 33.221C150.601 33.221 151.396 32.971 152.129 32.5179C152.831 32.0179 153.376 31.3616 153.828 30.5647C154.218 29.7679 154.421 28.8147 154.421 27.7522C154.481 26.8294 154.302 25.9066 153.9 25.074C153.499 24.2414 152.888 23.5275 152.129 23.0022C151.399 22.5466 150.557 22.305 149.697 22.305C148.838 22.305 147.995 22.5466 147.266 23.0022C146.58 23.5022 146.018 24.1585 145.582 24.9554C145.147 25.8263 144.943 26.7949 144.99 27.7679C144.929 28.6907 145.108 29.6135 145.51 30.4461C145.911 31.2787 146.522 31.9926 147.281 32.5179C148.014 32.971 148.762 33.221 149.697 33.221Z" fill="#FF385C"/>
</g>
<defs>
<clipPath id="clip0_1_1154">
<rect width="160" height="50" fill="white" transform="translate(0.5)"/>
</clipPath>
</defs>
</svg>
