<svg width="141" height="50" viewBox="0 0 141 50" fill="none" xmlns="http://www.w3.org/2000/svg">
<g clip-path="url(#clip0_1_1169)">
<path d="M105.109 44.743L116.785 31.8118L105.109 18.8788H117.428L123.211 25.1608L128.779 18.8788H140.668L129.048 31.7584L140.828 44.743H128.458L122.728 38.4094L117.052 44.743H105.109Z" fill="#FF6600"/>
<path d="M105.109 13.081H91.886V18.8788H105.109V27.6166H91.886V35.6368H105.109V44.743H82.1669V4H105.109V13.081Z" fill="#FF6600"/>
<path d="M72.4889 4V20.674H72.3824C70.2397 18.2464 67.5627 17.4028 64.4565 17.4028C58.0938 17.4028 53.301 21.6664 51.6185 27.3034C49.6999 21.0922 44.7518 17.2864 37.4146 17.2864C31.4561 17.2864 26.7509 19.9228 24.2954 24.2188V18.8794H11.979V13.0822H25.4197V4H1V44.7436H11.979V27.6166H22.9222C22.5959 28.8748 22.4218 30.2218 22.4218 31.6432C22.4218 40.1422 29.0085 46.1056 37.4146 46.1056C44.4834 46.1056 49.1417 42.8344 51.6057 36.8704H42.1971C40.9244 38.662 39.959 39.1942 37.4146 39.1942C34.4643 39.1942 31.9205 36.6568 31.9205 33.649H51.0786C51.9095 40.3996 57.2441 46.2214 64.5649 46.2214C67.7228 46.2214 70.6141 44.6902 72.3824 42.1048H72.4889V44.7424H82.1671V4H72.4889ZM32.2261 27.7384C32.8366 25.1506 34.8727 23.4592 37.4146 23.4592C40.2128 23.4592 42.1454 25.0984 42.6537 27.7384C42.8679 27.7384 32.2261 27.7384 32.2261 27.7384ZM66.6156 38.5396C63.048 38.5396 60.8311 35.263 60.8311 31.8418C60.8311 28.1848 62.7595 24.6682 66.6156 24.6682C70.6141 24.6682 72.207 28.1848 72.207 31.8418C72.2064 35.3098 70.5185 38.5396 66.6156 38.5396Z" fill="#652C8F"/>
</g>
<defs>
<clipPath id="clip0_1_1169">
<rect width="140" height="50" fill="white" transform="translate(0.5)"/>
</clipPath>
</defs>
</svg>
