<svg width="161" height="50" viewBox="0 0 161 50" fill="none" xmlns="http://www.w3.org/2000/svg">
<path d="M70.0513 26.26C70.0513 33.1658 64.6791 38.2546 58.0862 38.2546C51.4934 38.2546 46.1212 33.1658 46.1212 26.26C46.1212 19.3056 51.4934 14.2655 58.0862 14.2655C64.6791 14.2655 70.0513 19.3056 70.0513 26.26ZM64.8135 26.26C64.8135 21.9446 61.7 18.9919 58.0862 18.9919C54.4725 18.9919 51.3589 21.9446 51.3589 26.26C51.3589 30.5322 54.4725 33.5282 58.0862 33.5282C61.7 33.5282 64.8135 30.5268 64.8135 26.26Z" fill="#EA4335"/>
<path d="M95.8634 26.26C95.8634 33.1658 90.4912 38.2546 83.8984 38.2546C77.3055 38.2546 71.9334 33.1658 71.9334 26.26C71.9334 19.311 77.3055 14.2655 83.8984 14.2655C90.4912 14.2655 95.8634 19.3056 95.8634 26.26ZM90.6257 26.26C90.6257 21.9446 87.5121 18.9919 83.8984 18.9919C80.2847 18.9919 77.1711 21.9446 77.1711 26.26C77.1711 30.5322 80.2847 33.5282 83.8984 33.5282C87.5121 33.5282 90.6257 30.5268 90.6257 26.26Z" fill="#FBBC05"/>
<path d="M120.6 14.9901V36.5241C120.6 45.3822 115.405 49 109.264 49C103.483 49 100.004 45.1118 98.692 41.932L103.252 40.023C104.064 41.9752 106.054 44.279 109.259 44.279C113.19 44.279 115.626 41.84 115.626 37.2488V35.5237H115.443C114.271 36.9784 112.012 38.2492 109.162 38.2492C103.198 38.2492 97.7348 33.0252 97.7348 26.3033C97.7348 19.5327 103.198 14.2655 109.162 14.2655C112.007 14.2655 114.265 15.5363 115.443 16.9477H115.626V14.9955H120.6V14.9901ZM115.997 26.3033C115.997 22.0798 113.195 18.9919 109.63 18.9919C106.016 18.9919 102.989 22.0798 102.989 26.3033C102.989 30.4836 106.016 33.5282 109.63 33.5282C113.195 33.5282 115.997 30.4836 115.997 26.3033Z" fill="#4285F4"/>
<path d="M128.801 2.36824V37.5192H123.692V2.36824H128.801Z" fill="#34A853"/>
<path d="M148.709 30.2078L152.774 32.9333C151.462 34.8855 148.3 38.2492 142.836 38.2492C136.061 38.2492 131 32.982 131 26.2546C131 19.1217 136.104 14.26 142.25 14.26C148.44 14.26 151.467 19.2136 152.457 21.8905L153 23.2533L137.056 29.8941C138.276 32.3006 140.175 33.5282 142.836 33.5282C145.504 33.5282 147.354 32.2087 148.709 30.2078ZM136.195 25.8923L146.853 21.4417C146.267 19.9437 144.503 18.9 142.428 18.9C139.766 18.9 136.061 21.2632 136.195 25.8923Z" fill="#EA4335"/>
<path d="M26.7838 23.1397V18.0509H43.8359C44.0026 18.9378 44.0887 19.9869 44.0887 21.1226C44.0887 24.9405 43.0508 29.6615 39.706 33.0252C36.4526 36.4322 32.2957 38.2492 26.7891 38.2492C16.5826 38.2492 8 29.8887 8 19.6246C8 9.36052 16.5826 1 26.7891 1C32.4355 1 36.4579 3.22803 39.4801 6.13204L35.9094 9.72285C33.7423 7.67868 30.8061 6.08878 26.7838 6.08878C19.3305 6.08878 13.5012 12.1293 13.5012 19.6246C13.5012 27.1199 19.3305 33.1604 26.7838 33.1604C31.6182 33.1604 34.3715 31.2082 36.1353 29.4344C37.5657 27.9959 38.5068 25.941 38.8778 23.1343L26.7838 23.1397Z" fill="#4285F4"/>
</svg>
