<svg width="216" height="50" viewBox="0 0 216 50" fill="none" xmlns="http://www.w3.org/2000/svg">
<path d="M77.1847 28.3426L75.9152 31.8217H75.8094C75.5978 31.0372 75.2099 29.8434 74.5751 28.4108L67.769 11.8682H61.1039V38.2341H65.5121V21.9643C65.5121 20.941 65.5121 19.7814 65.4768 18.3488C65.4415 17.6325 65.371 17.0868 65.3357 16.6775H65.4415C65.6531 17.7007 65.9 18.4511 66.0763 18.9286L74.2578 38.1658H77.3611L85.472 18.7581C85.6483 18.3147 85.8246 17.4279 86.001 16.6775H86.1068C86.001 18.6217 85.9304 20.3612 85.8952 21.4186V38.1317H90.5854V11.8H84.1672L77.1847 28.3426ZM95.0288 19.2356H99.6132V38.1317H95.0288V19.2356ZM97.3563 11.2542C96.5804 11.2542 95.9457 11.5271 95.4167 12.0046C94.8877 12.4821 94.6056 13.0961 94.6056 13.8465C94.6056 14.5627 94.8877 15.1767 95.4167 15.6542C95.9457 16.1317 96.5804 16.3705 97.3563 16.3705C98.1321 16.3705 98.8021 16.0976 99.2958 15.6542C99.8248 15.1767 100.107 14.5627 100.107 13.8465C100.107 13.1302 99.8248 12.5162 99.2958 12.0046C98.8374 11.5271 98.1674 11.2542 97.3563 11.2542ZM115.87 19.0651C115.024 18.8945 114.142 18.7922 113.296 18.7922C111.215 18.7922 109.311 19.2356 107.724 20.1224C106.137 21.0093 104.868 22.2372 104.057 23.7721C103.21 25.341 102.787 27.1488 102.787 29.2294C102.787 31.0372 103.21 32.6403 104.021 34.1069C104.832 35.5395 105.961 36.6992 107.477 37.4837C108.923 38.2682 110.616 38.6775 112.52 38.6775C114.707 38.6775 116.576 38.2341 118.057 37.4155L118.092 37.3814V33.2883L117.916 33.4248C117.246 33.9023 116.47 34.3116 115.694 34.5503C114.883 34.8232 114.142 34.9596 113.508 34.9596C111.674 34.9596 110.228 34.448 109.205 33.3224C108.147 32.231 107.618 30.7302 107.618 28.8542C107.618 26.91 108.147 25.3752 109.241 24.2496C110.334 23.124 111.78 22.5441 113.543 22.5441C115.024 22.5441 116.54 23.0217 117.916 23.9767L118.092 24.1131V19.7814L118.057 19.7472C117.457 19.5085 116.787 19.2356 115.87 19.0651ZM130.999 18.9286C129.87 18.9286 128.813 19.2697 127.896 19.986C127.12 20.6 126.591 21.4868 126.132 22.5441H126.097V19.2356H121.513V38.1317H126.097V28.479C126.097 26.8418 126.45 25.4775 127.226 24.4883C128.001 23.4651 128.989 22.9534 130.188 22.9534C130.611 22.9534 131.034 23.0558 131.563 23.124C132.057 23.2604 132.41 23.3969 132.656 23.5674L132.833 23.7038V19.2697L132.727 19.2356C132.41 19.031 131.775 18.9286 130.999 18.9286ZM143.483 18.8263C140.274 18.8263 137.699 19.7472 135.901 21.555C134.067 23.3628 133.185 25.8527 133.185 28.9907C133.185 31.924 134.102 34.3116 135.866 36.0511C137.629 37.7565 140.027 38.6434 143.024 38.6434C146.163 38.6434 148.667 37.7224 150.465 35.8806C152.299 34.0387 153.181 31.5829 153.181 28.5472C153.181 25.5457 152.334 23.1581 150.606 21.4186C148.949 19.679 146.516 18.8263 143.483 18.8263ZM147.15 33.3565C146.304 34.4139 144.964 34.9255 143.306 34.9255C141.649 34.9255 140.309 34.4139 139.357 33.2883C138.405 32.231 137.946 30.6961 137.946 28.7519C137.946 26.7395 138.44 25.2046 139.357 24.1131C140.309 23.0217 141.614 22.4759 143.271 22.4759C144.893 22.4759 146.163 22.9876 147.08 24.0449C147.997 25.1023 148.49 26.6372 148.49 28.6496C148.42 30.6961 148.032 32.2992 147.15 33.3565ZM163.407 27.0806C161.962 26.5007 161.045 26.0573 160.621 25.6821C160.269 25.341 160.093 24.8635 160.093 24.2496C160.093 23.7379 160.304 23.2263 160.833 22.8852C161.362 22.5441 161.962 22.3736 162.843 22.3736C163.619 22.3736 164.43 22.51 165.206 22.7147C165.982 22.9193 166.687 23.2263 167.251 23.6356L167.428 23.7721V19.6108L167.322 19.5767C166.793 19.3721 166.088 19.1674 165.241 18.9969C164.395 18.8604 163.619 18.7922 162.984 18.7922C160.798 18.7922 158.999 19.3038 157.589 20.4294C156.178 21.4868 155.508 22.9193 155.508 24.5907C155.508 25.4775 155.649 26.262 155.967 26.91C156.284 27.5581 156.742 28.1721 157.377 28.6837C158.012 29.1612 158.929 29.7069 160.198 30.2186C161.256 30.662 162.067 31.0031 162.561 31.2759C163.055 31.5488 163.372 31.8558 163.619 32.0945C163.795 32.3674 163.901 32.7085 163.901 33.1519C163.901 34.4139 162.914 35.0279 160.904 35.0279C160.128 35.0279 159.317 34.8914 158.365 34.5845C157.412 34.2775 156.531 33.8341 155.79 33.3224L155.614 33.186V37.5178L155.72 37.5519C156.39 37.8589 157.201 38.0635 158.188 38.3023C159.176 38.4728 160.057 38.6093 160.833 38.6093C163.196 38.6093 165.135 38.0976 166.511 36.9721C167.921 35.8806 168.662 34.4821 168.662 32.6744C168.662 31.4124 168.309 30.2868 167.533 29.4341C166.511 28.6155 165.241 27.7628 163.407 27.0806ZM180.758 18.8263C177.549 18.8263 174.974 19.7472 173.176 21.555C171.377 23.3628 170.46 25.8527 170.46 28.9907C170.46 31.924 171.377 34.3116 173.141 36.0511C174.904 37.7565 177.302 38.6434 180.299 38.6434C183.438 38.6434 185.942 37.7224 187.74 35.8806C189.574 34.0387 190.456 31.5829 190.456 28.5472C190.456 25.5457 189.609 23.1581 187.881 21.4186C186.224 19.679 183.791 18.8263 180.758 18.8263ZM184.39 33.3565C183.544 34.4139 182.204 34.9255 180.546 34.9255C178.853 34.9255 177.549 34.4139 176.596 33.2883C175.644 32.231 175.186 30.6961 175.186 28.7519C175.186 26.7395 175.68 25.2046 176.596 24.1131C177.549 23.0217 178.853 22.4759 180.511 22.4759C182.098 22.4759 183.403 22.9876 184.32 24.0449C185.236 25.1023 185.73 26.6372 185.73 28.6496C185.73 30.6961 185.272 32.2992 184.39 33.3565ZM214.965 22.8852V19.2356H210.345V13.6418L210.204 13.6759L205.831 14.9379L205.725 14.9721V19.2356H198.813V16.848C198.813 15.7565 199.096 14.9038 199.589 14.3581C200.083 13.8124 200.824 13.5395 201.74 13.5395C202.375 13.5395 203.045 13.6759 203.786 13.9829L203.962 14.0852V10.231L203.856 10.1969C203.222 9.99221 202.375 9.85577 201.282 9.85577C199.907 9.85577 198.708 10.1628 197.614 10.6744C196.521 11.2542 195.71 12.0387 195.111 13.0961C194.511 14.1193 194.194 15.279 194.194 16.6093V19.2356H190.985V22.8511H194.194V38.1317H198.813V22.8852H205.725V32.6062C205.725 36.5969 207.665 38.6093 211.544 38.6093C212.179 38.6093 212.849 38.5069 213.484 38.4046C214.154 38.2682 214.647 38.0976 214.929 37.9612L214.965 37.9271V34.2775L214.788 34.4139C214.506 34.5845 214.259 34.7209 213.836 34.8232C213.484 34.9255 213.166 34.9596 212.919 34.9596C212.002 34.9596 211.368 34.755 210.909 34.2434C210.486 33.7659 210.274 32.9814 210.274 31.8217V22.8852H214.965Z" fill="#737373"/>
<path d="M2 3H23.6174V23.9085H2V3Z" fill="#F25022"/>
<path d="M25.8741 3H47.4915V23.9085H25.8741V3Z" fill="#7FBA00"/>
<path d="M2 26.0915H23.6174V47H2V26.0915Z" fill="#00A4EF"/>
<path d="M25.8741 26.0915H47.4915V47H25.8741V26.0915Z" fill="#FFB900"/>
</svg>
